<mxfile host="Electron" modified="2023-12-16T04:33:08.906Z" agent="Mozilla/5.0 (Macintosh; Intel Mac OS X 10_15_7) AppleWebKit/537.36 (KHTML, like Gecko) draw.io/22.1.2 Chrome/114.0.5735.289 Electron/25.9.4 Safari/537.36" etag="u0ElZJppce0J6hHLg7g_" version="22.1.2" type="device" pages="2">
  <diagram id="z7DQcGzTbMU9tiUiJVvo" name="第 2 页">
    <mxGraphModel dx="1026" dy="1132" grid="1" gridSize="10" guides="1" tooltips="1" connect="1" arrows="1" fold="1" page="0" pageScale="1" pageWidth="827" pageHeight="1169" math="0" shadow="0">
      <root>
        <mxCell id="0" />
        <mxCell id="1" parent="0" />
        <mxCell id="Jhal_V_5cQ3xvrdSuWcG-1" value="t_flight_monitor" style="swimlane;fontStyle=0;childLayout=stackLayout;horizontal=1;startSize=26;fillColor=none;horizontalStack=0;resizeParent=1;resizeParentMax=0;resizeLast=0;collapsible=1;marginBottom=0;" parent="1" vertex="1">
          <mxGeometry x="200" y="-240" width="160" height="78" as="geometry" />
        </mxCell>
        <mxCell id="Jhal_V_5cQ3xvrdSuWcG-2" value="+ id: bigint" style="text;strokeColor=none;fillColor=none;align=left;verticalAlign=top;spacingLeft=4;spacingRight=4;overflow=hidden;rotatable=0;points=[[0,0.5],[1,0.5]];portConstraint=eastwest;" parent="Jhal_V_5cQ3xvrdSuWcG-1" vertex="1">
          <mxGeometry y="26" width="160" height="26" as="geometry" />
        </mxCell>
        <mxCell id="Jhal_V_5cQ3xvrdSuWcG-3" value="+ flight_id: bigint" style="text;strokeColor=none;fillColor=none;align=left;verticalAlign=top;spacingLeft=4;spacingRight=4;overflow=hidden;rotatable=0;points=[[0,0.5],[1,0.5]];portConstraint=eastwest;" parent="Jhal_V_5cQ3xvrdSuWcG-1" vertex="1">
          <mxGeometry y="52" width="160" height="26" as="geometry" />
        </mxCell>
        <mxCell id="Jhal_V_5cQ3xvrdSuWcG-8" value="t_flight_monitor_task" style="swimlane;fontStyle=0;childLayout=stackLayout;horizontal=1;startSize=26;fillColor=none;horizontalStack=0;resizeParent=1;resizeParentMax=0;resizeLast=0;collapsible=1;marginBottom=0;" parent="1" vertex="1">
          <mxGeometry x="520" y="-240" width="200" height="130" as="geometry" />
        </mxCell>
        <mxCell id="Jhal_V_5cQ3xvrdSuWcG-9" value="+ id: bigint" style="text;strokeColor=none;fillColor=none;align=left;verticalAlign=top;spacingLeft=4;spacingRight=4;overflow=hidden;rotatable=0;points=[[0,0.5],[1,0.5]];portConstraint=eastwest;" parent="Jhal_V_5cQ3xvrdSuWcG-8" vertex="1">
          <mxGeometry y="26" width="200" height="26" as="geometry" />
        </mxCell>
        <mxCell id="Jhal_V_5cQ3xvrdSuWcG-10" value="+ flight_monitor_id: bigint" style="text;strokeColor=none;fillColor=none;align=left;verticalAlign=top;spacingLeft=4;spacingRight=4;overflow=hidden;rotatable=0;points=[[0,0.5],[1,0.5]];portConstraint=eastwest;" parent="Jhal_V_5cQ3xvrdSuWcG-8" vertex="1">
          <mxGeometry y="52" width="200" height="26" as="geometry" />
        </mxCell>
        <mxCell id="Jhal_V_5cQ3xvrdSuWcG-16" value="+ ..." style="text;strokeColor=none;fillColor=none;align=left;verticalAlign=top;spacingLeft=4;spacingRight=4;overflow=hidden;rotatable=0;points=[[0,0.5],[1,0.5]];portConstraint=eastwest;" parent="Jhal_V_5cQ3xvrdSuWcG-8" vertex="1">
          <mxGeometry y="78" width="200" height="26" as="geometry" />
        </mxCell>
        <mxCell id="Jhal_V_5cQ3xvrdSuWcG-18" value="+ task_template_id: bigint" style="text;strokeColor=none;fillColor=none;align=left;verticalAlign=top;spacingLeft=4;spacingRight=4;overflow=hidden;rotatable=0;points=[[0,0.5],[1,0.5]];portConstraint=eastwest;" parent="Jhal_V_5cQ3xvrdSuWcG-8" vertex="1">
          <mxGeometry y="104" width="200" height="26" as="geometry" />
        </mxCell>
        <mxCell id="Jhal_V_5cQ3xvrdSuWcG-31" value="t_flight_monitor_task_user_ref" style="swimlane;fontStyle=0;childLayout=stackLayout;horizontal=1;startSize=26;fillColor=none;horizontalStack=0;resizeParent=1;resizeParentMax=0;resizeLast=0;collapsible=1;marginBottom=0;" parent="1" vertex="1">
          <mxGeometry x="800" y="-240" width="200" height="104" as="geometry" />
        </mxCell>
        <mxCell id="Jhal_V_5cQ3xvrdSuWcG-32" value="+ id: bigint" style="text;strokeColor=none;fillColor=none;align=left;verticalAlign=top;spacingLeft=4;spacingRight=4;overflow=hidden;rotatable=0;points=[[0,0.5],[1,0.5]];portConstraint=eastwest;" parent="Jhal_V_5cQ3xvrdSuWcG-31" vertex="1">
          <mxGeometry y="26" width="200" height="26" as="geometry" />
        </mxCell>
        <mxCell id="Jhal_V_5cQ3xvrdSuWcG-33" value="+ flight_monitor_task_id: bigint" style="text;strokeColor=none;fillColor=none;align=left;verticalAlign=top;spacingLeft=4;spacingRight=4;overflow=hidden;rotatable=0;points=[[0,0.5],[1,0.5]];portConstraint=eastwest;" parent="Jhal_V_5cQ3xvrdSuWcG-31" vertex="1">
          <mxGeometry y="52" width="200" height="26" as="geometry" />
        </mxCell>
        <mxCell id="Jhal_V_5cQ3xvrdSuWcG-34" value="+ user_code: varchar(200)" style="text;strokeColor=none;fillColor=none;align=left;verticalAlign=top;spacingLeft=4;spacingRight=4;overflow=hidden;rotatable=0;points=[[0,0.5],[1,0.5]];portConstraint=eastwest;" parent="Jhal_V_5cQ3xvrdSuWcG-31" vertex="1">
          <mxGeometry y="78" width="200" height="26" as="geometry" />
        </mxCell>
        <mxCell id="Jhal_V_5cQ3xvrdSuWcG-41" value="t_task_template" style="swimlane;fontStyle=0;childLayout=stackLayout;horizontal=1;startSize=26;fillColor=none;horizontalStack=0;resizeParent=1;resizeParentMax=0;resizeLast=0;collapsible=1;marginBottom=0;" parent="1" vertex="1">
          <mxGeometry x="200" y="-120" width="200" height="104" as="geometry" />
        </mxCell>
        <mxCell id="Jhal_V_5cQ3xvrdSuWcG-42" value="+ id: bigint" style="text;strokeColor=none;fillColor=none;align=left;verticalAlign=top;spacingLeft=4;spacingRight=4;overflow=hidden;rotatable=0;points=[[0,0.5],[1,0.5]];portConstraint=eastwest;" parent="Jhal_V_5cQ3xvrdSuWcG-41" vertex="1">
          <mxGeometry y="26" width="200" height="26" as="geometry" />
        </mxCell>
        <mxCell id="Jhal_V_5cQ3xvrdSuWcG-43" value="+ name: varchar(20)" style="text;strokeColor=none;fillColor=none;align=left;verticalAlign=top;spacingLeft=4;spacingRight=4;overflow=hidden;rotatable=0;points=[[0,0.5],[1,0.5]];portConstraint=eastwest;" parent="Jhal_V_5cQ3xvrdSuWcG-41" vertex="1">
          <mxGeometry y="52" width="200" height="26" as="geometry" />
        </mxCell>
        <mxCell id="Jhal_V_5cQ3xvrdSuWcG-44" value="+ type: tinyint" style="text;strokeColor=none;fillColor=none;align=left;verticalAlign=top;spacingLeft=4;spacingRight=4;overflow=hidden;rotatable=0;points=[[0,0.5],[1,0.5]];portConstraint=eastwest;" parent="Jhal_V_5cQ3xvrdSuWcG-41" vertex="1">
          <mxGeometry y="78" width="200" height="26" as="geometry" />
        </mxCell>
        <mxCell id="Jhal_V_5cQ3xvrdSuWcG-54" style="rounded=0;orthogonalLoop=1;jettySize=auto;html=1;endArrow=none;endFill=0;exitX=1;exitY=0.5;exitDx=0;exitDy=0;entryX=0;entryY=0.5;entryDx=0;entryDy=0;" parent="1" source="Jhal_V_5cQ3xvrdSuWcG-2" target="Jhal_V_5cQ3xvrdSuWcG-10" edge="1">
          <mxGeometry relative="1" as="geometry" />
        </mxCell>
        <mxCell id="Jhal_V_5cQ3xvrdSuWcG-55" value="1" style="edgeLabel;html=1;align=center;verticalAlign=middle;resizable=0;points=[];" parent="Jhal_V_5cQ3xvrdSuWcG-54" vertex="1" connectable="0">
          <mxGeometry x="-0.7899" y="1" relative="1" as="geometry">
            <mxPoint as="offset" />
          </mxGeometry>
        </mxCell>
        <mxCell id="Jhal_V_5cQ3xvrdSuWcG-56" value="n" style="edgeLabel;html=1;align=center;verticalAlign=middle;resizable=0;points=[];" parent="Jhal_V_5cQ3xvrdSuWcG-54" vertex="1" connectable="0">
          <mxGeometry x="0.7459" y="1" relative="1" as="geometry">
            <mxPoint as="offset" />
          </mxGeometry>
        </mxCell>
        <mxCell id="Jhal_V_5cQ3xvrdSuWcG-57" style="rounded=0;orthogonalLoop=1;jettySize=auto;html=1;entryX=0;entryY=0.5;entryDx=0;entryDy=0;exitX=1;exitY=0.5;exitDx=0;exitDy=0;endArrow=none;endFill=0;" parent="1" source="Jhal_V_5cQ3xvrdSuWcG-9" target="Jhal_V_5cQ3xvrdSuWcG-33" edge="1">
          <mxGeometry relative="1" as="geometry" />
        </mxCell>
        <mxCell id="Jhal_V_5cQ3xvrdSuWcG-58" value="1" style="edgeLabel;html=1;align=center;verticalAlign=middle;resizable=0;points=[];" parent="Jhal_V_5cQ3xvrdSuWcG-57" vertex="1" connectable="0">
          <mxGeometry x="-0.7273" y="-1" relative="1" as="geometry">
            <mxPoint as="offset" />
          </mxGeometry>
        </mxCell>
        <mxCell id="Jhal_V_5cQ3xvrdSuWcG-59" value="n" style="edgeLabel;html=1;align=center;verticalAlign=middle;resizable=0;points=[];" parent="Jhal_V_5cQ3xvrdSuWcG-57" vertex="1" connectable="0">
          <mxGeometry x="0.6935" y="1" relative="1" as="geometry">
            <mxPoint as="offset" />
          </mxGeometry>
        </mxCell>
        <mxCell id="Jhal_V_5cQ3xvrdSuWcG-60" style="rounded=0;orthogonalLoop=1;jettySize=auto;html=1;entryX=1;entryY=0.5;entryDx=0;entryDy=0;exitX=0;exitY=0.5;exitDx=0;exitDy=0;endArrow=none;endFill=0;" parent="1" source="Jhal_V_5cQ3xvrdSuWcG-18" target="Jhal_V_5cQ3xvrdSuWcG-42" edge="1">
          <mxGeometry relative="1" as="geometry" />
        </mxCell>
        <mxCell id="Jhal_V_5cQ3xvrdSuWcG-61" value="n" style="edgeLabel;html=1;align=center;verticalAlign=middle;resizable=0;points=[];" parent="Jhal_V_5cQ3xvrdSuWcG-60" vertex="1" connectable="0">
          <mxGeometry x="-0.7064" y="-1" relative="1" as="geometry">
            <mxPoint y="-1" as="offset" />
          </mxGeometry>
        </mxCell>
        <mxCell id="Jhal_V_5cQ3xvrdSuWcG-62" value="1" style="edgeLabel;html=1;align=center;verticalAlign=middle;resizable=0;points=[];" parent="Jhal_V_5cQ3xvrdSuWcG-60" vertex="1" connectable="0">
          <mxGeometry x="0.7298" y="-2" relative="1" as="geometry">
            <mxPoint as="offset" />
          </mxGeometry>
        </mxCell>
      </root>
    </mxGraphModel>
  </diagram>
  <diagram id="ke70joBPyodazSKpDsUO" name="第 3 页">
    <mxGraphModel dx="1655" dy="610" grid="0" gridSize="10" guides="1" tooltips="1" connect="1" arrows="1" fold="1" page="0" pageScale="1" pageWidth="827" pageHeight="1169" math="0" shadow="0">
      <root>
        <mxCell id="0" />
        <mxCell id="1" parent="0" />
        <mxCell id="UxUqQfO87ql4i69kyXTH-1" value="" style="rounded=1;whiteSpace=wrap;html=1;" vertex="1" parent="1">
          <mxGeometry x="-540" y="400" width="100" height="300" as="geometry" />
        </mxCell>
        <mxCell id="UxUqQfO87ql4i69kyXTH-2" value="" style="rounded=1;whiteSpace=wrap;html=1;" vertex="1" parent="1">
          <mxGeometry x="-340" y="60" width="240" height="240" as="geometry" />
        </mxCell>
        <mxCell id="UxUqQfO87ql4i69kyXTH-3" value="" style="rounded=1;whiteSpace=wrap;html=1;" vertex="1" parent="1">
          <mxGeometry x="-60" y="40" width="100" height="300" as="geometry" />
        </mxCell>
        <mxCell id="UxUqQfO87ql4i69kyXTH-4" value="5001" style="rounded=0;whiteSpace=wrap;html=1;" vertex="1" parent="1">
          <mxGeometry x="-40" y="180" width="60" height="20" as="geometry" />
        </mxCell>
        <mxCell id="UxUqQfO87ql4i69kyXTH-5" value="" style="rounded=0;whiteSpace=wrap;html=1;" vertex="1" parent="1">
          <mxGeometry x="-40" y="200" width="60" height="20" as="geometry" />
        </mxCell>
        <mxCell id="UxUqQfO87ql4i69kyXTH-6" value="" style="rounded=0;whiteSpace=wrap;html=1;" vertex="1" parent="1">
          <mxGeometry x="-40" y="220" width="60" height="20" as="geometry" />
        </mxCell>
        <mxCell id="UxUqQfO87ql4i69kyXTH-7" value="" style="rounded=0;whiteSpace=wrap;html=1;" vertex="1" parent="1">
          <mxGeometry x="-40" y="240" width="60" height="20" as="geometry" />
        </mxCell>
        <mxCell id="UxUqQfO87ql4i69kyXTH-8" value="" style="rounded=0;whiteSpace=wrap;html=1;" vertex="1" parent="1">
          <mxGeometry x="-40" y="260" width="60" height="20" as="geometry" />
        </mxCell>
        <mxCell id="UxUqQfO87ql4i69kyXTH-9" value="" style="rounded=0;whiteSpace=wrap;html=1;" vertex="1" parent="1">
          <mxGeometry x="-40" y="280" width="60" height="20" as="geometry" />
        </mxCell>
        <mxCell id="UxUqQfO87ql4i69kyXTH-10" value="t3-id索引" style="text;html=1;strokeColor=none;fillColor=none;align=center;verticalAlign=middle;whiteSpace=wrap;rounded=0;" vertex="1" parent="1">
          <mxGeometry x="-60" y="40" width="100" height="30" as="geometry" />
        </mxCell>
        <mxCell id="UxUqQfO87ql4i69kyXTH-11" value="5001" style="rounded=0;whiteSpace=wrap;html=1;" vertex="1" parent="1">
          <mxGeometry x="-320" y="120" width="60" height="20" as="geometry" />
        </mxCell>
        <mxCell id="UxUqQfO87ql4i69kyXTH-12" value="" style="rounded=0;whiteSpace=wrap;html=1;" vertex="1" parent="1">
          <mxGeometry x="-320" y="140" width="60" height="20" as="geometry" />
        </mxCell>
        <mxCell id="UxUqQfO87ql4i69kyXTH-13" value="..." style="rounded=0;whiteSpace=wrap;html=1;" vertex="1" parent="1">
          <mxGeometry x="-320" y="160" width="60" height="20" as="geometry" />
        </mxCell>
        <mxCell id="UxUqQfO87ql4i69kyXTH-14" value="" style="rounded=0;whiteSpace=wrap;html=1;" vertex="1" parent="1">
          <mxGeometry x="-320" y="180" width="60" height="20" as="geometry" />
        </mxCell>
        <mxCell id="UxUqQfO87ql4i69kyXTH-15" value="" style="rounded=0;whiteSpace=wrap;html=1;" vertex="1" parent="1">
          <mxGeometry x="-320" y="200" width="60" height="20" as="geometry" />
        </mxCell>
        <mxCell id="UxUqQfO87ql4i69kyXTH-16" value="1" style="rounded=0;whiteSpace=wrap;html=1;" vertex="1" parent="1">
          <mxGeometry x="-320" y="220" width="60" height="20" as="geometry" />
        </mxCell>
        <mxCell id="UxUqQfO87ql4i69kyXTH-17" style="rounded=0;orthogonalLoop=1;jettySize=auto;html=1;entryX=0;entryY=0.5;entryDx=0;entryDy=0;exitX=1;exitY=0.5;exitDx=0;exitDy=0;" edge="1" parent="1" source="UxUqQfO87ql4i69kyXTH-18" target="UxUqQfO87ql4i69kyXTH-46">
          <mxGeometry relative="1" as="geometry" />
        </mxCell>
        <mxCell id="UxUqQfO87ql4i69kyXTH-18" value="1" style="rounded=0;whiteSpace=wrap;html=1;" vertex="1" parent="1">
          <mxGeometry x="-180" y="120" width="60" height="20" as="geometry" />
        </mxCell>
        <mxCell id="UxUqQfO87ql4i69kyXTH-19" style="rounded=0;orthogonalLoop=1;jettySize=auto;html=1;entryX=0;entryY=0.5;entryDx=0;entryDy=0;exitX=1;exitY=0.5;exitDx=0;exitDy=0;" edge="1" parent="1" source="UxUqQfO87ql4i69kyXTH-20" target="UxUqQfO87ql4i69kyXTH-47">
          <mxGeometry relative="1" as="geometry" />
        </mxCell>
        <mxCell id="UxUqQfO87ql4i69kyXTH-20" value="" style="rounded=0;whiteSpace=wrap;html=1;" vertex="1" parent="1">
          <mxGeometry x="-180" y="140" width="60" height="20" as="geometry" />
        </mxCell>
        <mxCell id="UxUqQfO87ql4i69kyXTH-21" style="rounded=0;orthogonalLoop=1;jettySize=auto;html=1;entryX=0;entryY=0.5;entryDx=0;entryDy=0;exitX=1;exitY=0.5;exitDx=0;exitDy=0;" edge="1" parent="1" source="UxUqQfO87ql4i69kyXTH-22" target="UxUqQfO87ql4i69kyXTH-48">
          <mxGeometry relative="1" as="geometry" />
        </mxCell>
        <mxCell id="UxUqQfO87ql4i69kyXTH-22" value="..." style="rounded=0;whiteSpace=wrap;html=1;" vertex="1" parent="1">
          <mxGeometry x="-180" y="160" width="60" height="20" as="geometry" />
        </mxCell>
        <mxCell id="UxUqQfO87ql4i69kyXTH-23" style="rounded=0;orthogonalLoop=1;jettySize=auto;html=1;entryX=0;entryY=0.5;entryDx=0;entryDy=0;exitX=1;exitY=0.5;exitDx=0;exitDy=0;" edge="1" parent="1" source="UxUqQfO87ql4i69kyXTH-24" target="UxUqQfO87ql4i69kyXTH-49">
          <mxGeometry relative="1" as="geometry" />
        </mxCell>
        <mxCell id="UxUqQfO87ql4i69kyXTH-24" value="" style="rounded=0;whiteSpace=wrap;html=1;" vertex="1" parent="1">
          <mxGeometry x="-180" y="180" width="60" height="20" as="geometry" />
        </mxCell>
        <mxCell id="UxUqQfO87ql4i69kyXTH-25" style="rounded=0;orthogonalLoop=1;jettySize=auto;html=1;entryX=0;entryY=0.5;entryDx=0;entryDy=0;exitX=1;exitY=0.5;exitDx=0;exitDy=0;" edge="1" parent="1" source="UxUqQfO87ql4i69kyXTH-26" target="UxUqQfO87ql4i69kyXTH-50">
          <mxGeometry relative="1" as="geometry" />
        </mxCell>
        <mxCell id="UxUqQfO87ql4i69kyXTH-26" value="" style="rounded=0;whiteSpace=wrap;html=1;" vertex="1" parent="1">
          <mxGeometry x="-180" y="200" width="60" height="20" as="geometry" />
        </mxCell>
        <mxCell id="UxUqQfO87ql4i69kyXTH-27" style="rounded=0;orthogonalLoop=1;jettySize=auto;html=1;entryX=0;entryY=0.5;entryDx=0;entryDy=0;exitX=1;exitY=0.5;exitDx=0;exitDy=0;" edge="1" parent="1" source="UxUqQfO87ql4i69kyXTH-28" target="UxUqQfO87ql4i69kyXTH-4">
          <mxGeometry relative="1" as="geometry" />
        </mxCell>
        <mxCell id="UxUqQfO87ql4i69kyXTH-28" value="5001" style="rounded=0;whiteSpace=wrap;html=1;" vertex="1" parent="1">
          <mxGeometry x="-180" y="220" width="60" height="20" as="geometry" />
        </mxCell>
        <mxCell id="UxUqQfO87ql4i69kyXTH-29" value="" style="shape=flexArrow;endArrow=classic;html=1;rounded=0;" edge="1" parent="1">
          <mxGeometry width="50" height="50" relative="1" as="geometry">
            <mxPoint x="-250" y="179.31" as="sourcePoint" />
            <mxPoint x="-190" y="179.31" as="targetPoint" />
          </mxGeometry>
        </mxCell>
        <mxCell id="UxUqQfO87ql4i69kyXTH-30" value="排序" style="text;html=1;strokeColor=none;fillColor=none;align=center;verticalAlign=middle;whiteSpace=wrap;rounded=0;" vertex="1" parent="1">
          <mxGeometry x="-250" y="139.31" width="60" height="30" as="geometry" />
        </mxCell>
        <mxCell id="UxUqQfO87ql4i69kyXTH-31" value="read_rnd_buffer " style="text;html=1;strokeColor=none;fillColor=none;align=center;verticalAlign=middle;whiteSpace=wrap;rounded=0;" vertex="1" parent="1">
          <mxGeometry x="-280" y="60" width="120" height="30" as="geometry" />
        </mxCell>
        <mxCell id="UxUqQfO87ql4i69kyXTH-32" value="" style="rounded=1;whiteSpace=wrap;html=1;" vertex="1" parent="1">
          <mxGeometry x="-500" y="40" width="120" height="300" as="geometry" />
        </mxCell>
        <mxCell id="UxUqQfO87ql4i69kyXTH-33" style="rounded=0;orthogonalLoop=1;jettySize=auto;html=1;entryX=0;entryY=0.5;entryDx=0;entryDy=0;exitX=1;exitY=0.5;exitDx=0;exitDy=0;" edge="1" parent="1" source="UxUqQfO87ql4i69kyXTH-133" target="UxUqQfO87ql4i69kyXTH-11">
          <mxGeometry relative="1" as="geometry" />
        </mxCell>
        <mxCell id="UxUqQfO87ql4i69kyXTH-34" value="" style="rounded=0;whiteSpace=wrap;html=1;" vertex="1" parent="1">
          <mxGeometry x="-480" y="80" width="40" height="20" as="geometry" />
        </mxCell>
        <mxCell id="UxUqQfO87ql4i69kyXTH-35" style="rounded=0;orthogonalLoop=1;jettySize=auto;html=1;entryX=0;entryY=0.5;entryDx=0;entryDy=0;exitX=1;exitY=0.5;exitDx=0;exitDy=0;" edge="1" parent="1" source="UxUqQfO87ql4i69kyXTH-134" target="UxUqQfO87ql4i69kyXTH-12">
          <mxGeometry relative="1" as="geometry" />
        </mxCell>
        <mxCell id="UxUqQfO87ql4i69kyXTH-36" value="" style="rounded=0;whiteSpace=wrap;html=1;" vertex="1" parent="1">
          <mxGeometry x="-480" y="100" width="40" height="20" as="geometry" />
        </mxCell>
        <mxCell id="UxUqQfO87ql4i69kyXTH-37" style="rounded=0;orthogonalLoop=1;jettySize=auto;html=1;entryX=0;entryY=0.5;entryDx=0;entryDy=0;exitX=1;exitY=0.5;exitDx=0;exitDy=0;" edge="1" parent="1" source="UxUqQfO87ql4i69kyXTH-135" target="UxUqQfO87ql4i69kyXTH-13">
          <mxGeometry relative="1" as="geometry" />
        </mxCell>
        <mxCell id="UxUqQfO87ql4i69kyXTH-38" value="" style="rounded=0;whiteSpace=wrap;html=1;" vertex="1" parent="1">
          <mxGeometry x="-480" y="120" width="40" height="20" as="geometry" />
        </mxCell>
        <mxCell id="UxUqQfO87ql4i69kyXTH-39" style="rounded=0;orthogonalLoop=1;jettySize=auto;html=1;entryX=0;entryY=0.5;entryDx=0;entryDy=0;exitX=1;exitY=0.5;exitDx=0;exitDy=0;" edge="1" parent="1" source="UxUqQfO87ql4i69kyXTH-136" target="UxUqQfO87ql4i69kyXTH-14">
          <mxGeometry relative="1" as="geometry" />
        </mxCell>
        <mxCell id="UxUqQfO87ql4i69kyXTH-40" value="" style="rounded=0;whiteSpace=wrap;html=1;" vertex="1" parent="1">
          <mxGeometry x="-480" y="140" width="40" height="20" as="geometry" />
        </mxCell>
        <mxCell id="UxUqQfO87ql4i69kyXTH-41" style="rounded=0;orthogonalLoop=1;jettySize=auto;html=1;entryX=0;entryY=0.5;entryDx=0;entryDy=0;exitX=1;exitY=0.5;exitDx=0;exitDy=0;" edge="1" parent="1" source="UxUqQfO87ql4i69kyXTH-137" target="UxUqQfO87ql4i69kyXTH-15">
          <mxGeometry relative="1" as="geometry" />
        </mxCell>
        <mxCell id="UxUqQfO87ql4i69kyXTH-42" value="" style="rounded=0;whiteSpace=wrap;html=1;" vertex="1" parent="1">
          <mxGeometry x="-480" y="160" width="40" height="20" as="geometry" />
        </mxCell>
        <mxCell id="UxUqQfO87ql4i69kyXTH-43" style="rounded=0;orthogonalLoop=1;jettySize=auto;html=1;entryX=0;entryY=0.5;entryDx=0;entryDy=0;exitX=1;exitY=0.5;exitDx=0;exitDy=0;" edge="1" parent="1" source="UxUqQfO87ql4i69kyXTH-138" target="UxUqQfO87ql4i69kyXTH-16">
          <mxGeometry relative="1" as="geometry" />
        </mxCell>
        <mxCell id="UxUqQfO87ql4i69kyXTH-44" value="5000" style="rounded=0;whiteSpace=wrap;html=1;" vertex="1" parent="1">
          <mxGeometry x="-480" y="180" width="40" height="20" as="geometry" />
        </mxCell>
        <mxCell id="UxUqQfO87ql4i69kyXTH-45" value="t3-a索引" style="text;html=1;strokeColor=none;fillColor=none;align=center;verticalAlign=middle;whiteSpace=wrap;rounded=0;" vertex="1" parent="1">
          <mxGeometry x="-480" y="40" width="100" height="30" as="geometry" />
        </mxCell>
        <mxCell id="UxUqQfO87ql4i69kyXTH-46" value="1" style="rounded=0;whiteSpace=wrap;html=1;" vertex="1" parent="1">
          <mxGeometry x="-40" y="80" width="60" height="20" as="geometry" />
        </mxCell>
        <mxCell id="UxUqQfO87ql4i69kyXTH-47" value="" style="rounded=0;whiteSpace=wrap;html=1;" vertex="1" parent="1">
          <mxGeometry x="-40" y="100" width="60" height="20" as="geometry" />
        </mxCell>
        <mxCell id="UxUqQfO87ql4i69kyXTH-48" value="..." style="rounded=0;whiteSpace=wrap;html=1;" vertex="1" parent="1">
          <mxGeometry x="-40" y="120" width="60" height="20" as="geometry" />
        </mxCell>
        <mxCell id="UxUqQfO87ql4i69kyXTH-49" value="" style="rounded=0;whiteSpace=wrap;html=1;" vertex="1" parent="1">
          <mxGeometry x="-40" y="140" width="60" height="20" as="geometry" />
        </mxCell>
        <mxCell id="UxUqQfO87ql4i69kyXTH-50" value="" style="rounded=0;whiteSpace=wrap;html=1;" vertex="1" parent="1">
          <mxGeometry x="-40" y="160" width="60" height="20" as="geometry" />
        </mxCell>
        <mxCell id="UxUqQfO87ql4i69kyXTH-51" value="" style="rounded=0;whiteSpace=wrap;html=1;" vertex="1" parent="1">
          <mxGeometry x="-480" y="200" width="40" height="20" as="geometry" />
        </mxCell>
        <mxCell id="UxUqQfO87ql4i69kyXTH-52" value="..." style="rounded=0;whiteSpace=wrap;html=1;" vertex="1" parent="1">
          <mxGeometry x="-480" y="220" width="40" height="20" as="geometry" />
        </mxCell>
        <mxCell id="UxUqQfO87ql4i69kyXTH-53" value="" style="rounded=0;whiteSpace=wrap;html=1;" vertex="1" parent="1">
          <mxGeometry x="-480" y="240" width="40" height="20" as="geometry" />
        </mxCell>
        <mxCell id="UxUqQfO87ql4i69kyXTH-54" value="" style="rounded=0;whiteSpace=wrap;html=1;" vertex="1" parent="1">
          <mxGeometry x="-480" y="260" width="40" height="20" as="geometry" />
        </mxCell>
        <mxCell id="UxUqQfO87ql4i69kyXTH-55" value="10000" style="rounded=0;whiteSpace=wrap;html=1;" vertex="1" parent="1">
          <mxGeometry x="-480" y="280" width="40" height="20" as="geometry" />
        </mxCell>
        <mxCell id="UxUqQfO87ql4i69kyXTH-56" value="" style="rounded=1;whiteSpace=wrap;html=1;" vertex="1" parent="1">
          <mxGeometry x="40" y="400" width="100" height="300" as="geometry" />
        </mxCell>
        <mxCell id="UxUqQfO87ql4i69kyXTH-57" value="" style="rounded=1;whiteSpace=wrap;html=1;" vertex="1" parent="1">
          <mxGeometry x="-120" y="400" width="120" height="300" as="geometry" />
        </mxCell>
        <mxCell id="UxUqQfO87ql4i69kyXTH-58" value="" style="rounded=1;whiteSpace=wrap;html=1;" vertex="1" parent="1">
          <mxGeometry x="-400" y="420" width="240" height="240" as="geometry" />
        </mxCell>
        <mxCell id="UxUqQfO87ql4i69kyXTH-59" style="rounded=0;orthogonalLoop=1;jettySize=auto;html=1;entryX=0;entryY=0.5;entryDx=0;entryDy=0;fillColor=#f8cecc;strokeColor=#000000;" edge="1" parent="1" target="UxUqQfO87ql4i69kyXTH-65">
          <mxGeometry relative="1" as="geometry">
            <mxPoint x="-460" y="550" as="sourcePoint" />
          </mxGeometry>
        </mxCell>
        <mxCell id="UxUqQfO87ql4i69kyXTH-60" style="rounded=0;orthogonalLoop=1;jettySize=auto;html=1;entryX=0;entryY=0.5;entryDx=0;entryDy=0;fillColor=#ffe6cc;strokeColor=#000000;exitX=1;exitY=0.5;exitDx=0;exitDy=0;" edge="1" parent="1" source="UxUqQfO87ql4i69kyXTH-113" target="UxUqQfO87ql4i69kyXTH-66">
          <mxGeometry relative="1" as="geometry">
            <mxPoint x="-460" y="570" as="sourcePoint" />
          </mxGeometry>
        </mxCell>
        <mxCell id="UxUqQfO87ql4i69kyXTH-61" style="rounded=0;orthogonalLoop=1;jettySize=auto;html=1;entryX=0;entryY=0.5;entryDx=0;entryDy=0;exitX=1;exitY=0.5;exitDx=0;exitDy=0;fillColor=#a20025;strokeColor=#000000;" edge="1" parent="1" source="UxUqQfO87ql4i69kyXTH-114" target="UxUqQfO87ql4i69kyXTH-67">
          <mxGeometry relative="1" as="geometry">
            <mxPoint x="-460" y="590" as="sourcePoint" />
          </mxGeometry>
        </mxCell>
        <mxCell id="UxUqQfO87ql4i69kyXTH-62" style="rounded=0;orthogonalLoop=1;jettySize=auto;html=1;entryX=0;entryY=0.5;entryDx=0;entryDy=0;fillColor=#dae8fc;strokeColor=#000000;exitX=1;exitY=0.5;exitDx=0;exitDy=0;" edge="1" parent="1" source="UxUqQfO87ql4i69kyXTH-115" target="UxUqQfO87ql4i69kyXTH-68">
          <mxGeometry relative="1" as="geometry">
            <mxPoint x="-460" y="610" as="sourcePoint" />
          </mxGeometry>
        </mxCell>
        <mxCell id="UxUqQfO87ql4i69kyXTH-63" style="rounded=0;orthogonalLoop=1;jettySize=auto;html=1;entryX=0;entryY=0.5;entryDx=0;entryDy=0;fillColor=#d5e8d4;strokeColor=#000000;exitX=1;exitY=0.5;exitDx=0;exitDy=0;" edge="1" parent="1" source="UxUqQfO87ql4i69kyXTH-116" target="UxUqQfO87ql4i69kyXTH-69">
          <mxGeometry relative="1" as="geometry">
            <mxPoint x="-460" y="630" as="sourcePoint" />
          </mxGeometry>
        </mxCell>
        <mxCell id="UxUqQfO87ql4i69kyXTH-64" style="rounded=0;orthogonalLoop=1;jettySize=auto;html=1;entryX=0;entryY=0.5;entryDx=0;entryDy=0;fillColor=#e1d5e7;strokeColor=#000000;exitX=1;exitY=0.5;exitDx=0;exitDy=0;" edge="1" parent="1" source="UxUqQfO87ql4i69kyXTH-117" target="UxUqQfO87ql4i69kyXTH-70">
          <mxGeometry relative="1" as="geometry">
            <mxPoint x="-460" y="650" as="sourcePoint" />
          </mxGeometry>
        </mxCell>
        <mxCell id="UxUqQfO87ql4i69kyXTH-65" value="5000" style="rounded=0;whiteSpace=wrap;html=1;" vertex="1" parent="1">
          <mxGeometry x="-380" y="480" width="60" height="20" as="geometry" />
        </mxCell>
        <mxCell id="UxUqQfO87ql4i69kyXTH-66" value="" style="rounded=0;whiteSpace=wrap;html=1;" vertex="1" parent="1">
          <mxGeometry x="-380" y="500" width="60" height="20" as="geometry" />
        </mxCell>
        <mxCell id="UxUqQfO87ql4i69kyXTH-67" value="..." style="rounded=0;whiteSpace=wrap;html=1;" vertex="1" parent="1">
          <mxGeometry x="-380" y="520" width="60" height="20" as="geometry" />
        </mxCell>
        <mxCell id="UxUqQfO87ql4i69kyXTH-68" value="" style="rounded=0;whiteSpace=wrap;html=1;" vertex="1" parent="1">
          <mxGeometry x="-380" y="540" width="60" height="20" as="geometry" />
        </mxCell>
        <mxCell id="UxUqQfO87ql4i69kyXTH-69" value="" style="rounded=0;whiteSpace=wrap;html=1;" vertex="1" parent="1">
          <mxGeometry x="-380" y="560" width="60" height="20" as="geometry" />
        </mxCell>
        <mxCell id="UxUqQfO87ql4i69kyXTH-70" value="10000" style="rounded=0;whiteSpace=wrap;html=1;" vertex="1" parent="1">
          <mxGeometry x="-380" y="580" width="60" height="20" as="geometry" />
        </mxCell>
        <mxCell id="UxUqQfO87ql4i69kyXTH-71" style="rounded=0;orthogonalLoop=1;jettySize=auto;html=1;entryX=0;entryY=0.5;entryDx=0;entryDy=0;fillColor=#e1d5e7;strokeColor=#000000;exitX=1;exitY=0.5;exitDx=0;exitDy=0;" edge="1" parent="1" source="UxUqQfO87ql4i69kyXTH-72" target="UxUqQfO87ql4i69kyXTH-86">
          <mxGeometry relative="1" as="geometry" />
        </mxCell>
        <mxCell id="UxUqQfO87ql4i69kyXTH-72" value="5000" style="rounded=0;whiteSpace=wrap;html=1;" vertex="1" parent="1">
          <mxGeometry x="-240" y="480" width="60" height="20" as="geometry" />
        </mxCell>
        <mxCell id="UxUqQfO87ql4i69kyXTH-73" style="rounded=0;orthogonalLoop=1;jettySize=auto;html=1;entryX=0;entryY=0.5;entryDx=0;entryDy=0;fillColor=#d5e8d4;strokeColor=#000000;exitX=1;exitY=0.5;exitDx=0;exitDy=0;" edge="1" parent="1" source="UxUqQfO87ql4i69kyXTH-74" target="UxUqQfO87ql4i69kyXTH-88">
          <mxGeometry relative="1" as="geometry" />
        </mxCell>
        <mxCell id="UxUqQfO87ql4i69kyXTH-74" value="" style="rounded=0;whiteSpace=wrap;html=1;" vertex="1" parent="1">
          <mxGeometry x="-240" y="500" width="60" height="20" as="geometry" />
        </mxCell>
        <mxCell id="UxUqQfO87ql4i69kyXTH-75" style="rounded=0;orthogonalLoop=1;jettySize=auto;html=1;fillColor=#dae8fc;strokeColor=#000000;entryX=0;entryY=0.5;entryDx=0;entryDy=0;exitX=1;exitY=0.5;exitDx=0;exitDy=0;" edge="1" parent="1" source="UxUqQfO87ql4i69kyXTH-76" target="UxUqQfO87ql4i69kyXTH-90">
          <mxGeometry relative="1" as="geometry" />
        </mxCell>
        <mxCell id="UxUqQfO87ql4i69kyXTH-76" value="..." style="rounded=0;whiteSpace=wrap;html=1;" vertex="1" parent="1">
          <mxGeometry x="-240" y="520" width="60" height="20" as="geometry" />
        </mxCell>
        <mxCell id="UxUqQfO87ql4i69kyXTH-77" style="rounded=0;orthogonalLoop=1;jettySize=auto;html=1;fillColor=#a20025;strokeColor=#000000;entryX=0;entryY=0.5;entryDx=0;entryDy=0;exitX=1;exitY=0.5;exitDx=0;exitDy=0;" edge="1" parent="1" source="UxUqQfO87ql4i69kyXTH-78" target="UxUqQfO87ql4i69kyXTH-92">
          <mxGeometry relative="1" as="geometry" />
        </mxCell>
        <mxCell id="UxUqQfO87ql4i69kyXTH-78" value="" style="rounded=0;whiteSpace=wrap;html=1;" vertex="1" parent="1">
          <mxGeometry x="-240" y="540" width="60" height="20" as="geometry" />
        </mxCell>
        <mxCell id="UxUqQfO87ql4i69kyXTH-79" style="rounded=0;orthogonalLoop=1;jettySize=auto;html=1;fillColor=#fff2cc;strokeColor=#000000;entryX=0;entryY=0.5;entryDx=0;entryDy=0;exitX=1;exitY=0.5;exitDx=0;exitDy=0;" edge="1" parent="1" source="UxUqQfO87ql4i69kyXTH-80" target="UxUqQfO87ql4i69kyXTH-94">
          <mxGeometry relative="1" as="geometry" />
        </mxCell>
        <mxCell id="UxUqQfO87ql4i69kyXTH-80" value="" style="rounded=0;whiteSpace=wrap;html=1;" vertex="1" parent="1">
          <mxGeometry x="-240" y="560" width="60" height="20" as="geometry" />
        </mxCell>
        <mxCell id="UxUqQfO87ql4i69kyXTH-81" style="rounded=0;orthogonalLoop=1;jettySize=auto;html=1;fillColor=#f8cecc;strokeColor=#000000;entryX=0;entryY=0.5;entryDx=0;entryDy=0;exitX=1;exitY=0.5;exitDx=0;exitDy=0;" edge="1" parent="1" source="UxUqQfO87ql4i69kyXTH-82" target="UxUqQfO87ql4i69kyXTH-96">
          <mxGeometry relative="1" as="geometry" />
        </mxCell>
        <mxCell id="UxUqQfO87ql4i69kyXTH-82" value="10000" style="rounded=0;whiteSpace=wrap;html=1;" vertex="1" parent="1">
          <mxGeometry x="-240" y="580" width="60" height="20" as="geometry" />
        </mxCell>
        <mxCell id="UxUqQfO87ql4i69kyXTH-83" value="" style="shape=flexArrow;endArrow=classic;html=1;rounded=0;" edge="1" parent="1">
          <mxGeometry width="50" height="50" relative="1" as="geometry">
            <mxPoint x="-310" y="539.31" as="sourcePoint" />
            <mxPoint x="-250" y="539.31" as="targetPoint" />
          </mxGeometry>
        </mxCell>
        <mxCell id="UxUqQfO87ql4i69kyXTH-84" value="排序" style="text;html=1;strokeColor=none;fillColor=none;align=center;verticalAlign=middle;whiteSpace=wrap;rounded=0;" vertex="1" parent="1">
          <mxGeometry x="-310" y="499.30999999999995" width="60" height="30" as="geometry" />
        </mxCell>
        <mxCell id="UxUqQfO87ql4i69kyXTH-85" style="rounded=0;orthogonalLoop=1;jettySize=auto;html=1;entryX=0;entryY=0.5;entryDx=0;entryDy=0;exitX=1;exitY=0.5;exitDx=0;exitDy=0;fillColor=#e1d5e7;strokeColor=#000000;" edge="1" parent="1" source="UxUqQfO87ql4i69kyXTH-140" target="UxUqQfO87ql4i69kyXTH-102">
          <mxGeometry relative="1" as="geometry" />
        </mxCell>
        <mxCell id="UxUqQfO87ql4i69kyXTH-86" value="5000" style="rounded=0;whiteSpace=wrap;html=1;" vertex="1" parent="1">
          <mxGeometry x="-100" y="540" width="40" height="20" as="geometry" />
        </mxCell>
        <mxCell id="UxUqQfO87ql4i69kyXTH-87" style="rounded=0;orthogonalLoop=1;jettySize=auto;html=1;entryX=0;entryY=0.5;entryDx=0;entryDy=0;exitX=1;exitY=0.5;exitDx=0;exitDy=0;fillColor=#d5e8d4;strokeColor=#000000;" edge="1" parent="1" source="UxUqQfO87ql4i69kyXTH-141" target="UxUqQfO87ql4i69kyXTH-97">
          <mxGeometry relative="1" as="geometry">
            <mxPoint x="60" y="510" as="targetPoint" />
          </mxGeometry>
        </mxCell>
        <mxCell id="UxUqQfO87ql4i69kyXTH-88" value="" style="rounded=0;whiteSpace=wrap;html=1;" vertex="1" parent="1">
          <mxGeometry x="-100" y="560" width="40" height="20" as="geometry" />
        </mxCell>
        <mxCell id="UxUqQfO87ql4i69kyXTH-89" style="rounded=0;orthogonalLoop=1;jettySize=auto;html=1;entryX=0;entryY=0.5;entryDx=0;entryDy=0;exitX=1;exitY=0.5;exitDx=0;exitDy=0;fillColor=#dae8fc;strokeColor=#000000;" edge="1" parent="1" source="UxUqQfO87ql4i69kyXTH-142" target="UxUqQfO87ql4i69kyXTH-98">
          <mxGeometry relative="1" as="geometry">
            <mxPoint x="60" y="530" as="targetPoint" />
          </mxGeometry>
        </mxCell>
        <mxCell id="UxUqQfO87ql4i69kyXTH-90" value="..." style="rounded=0;whiteSpace=wrap;html=1;" vertex="1" parent="1">
          <mxGeometry x="-100" y="580" width="40" height="20" as="geometry" />
        </mxCell>
        <mxCell id="UxUqQfO87ql4i69kyXTH-91" style="rounded=0;orthogonalLoop=1;jettySize=auto;html=1;entryX=0;entryY=0.5;entryDx=0;entryDy=0;exitX=1;exitY=0.5;exitDx=0;exitDy=0;fillColor=#a20025;strokeColor=#000000;" edge="1" parent="1" source="UxUqQfO87ql4i69kyXTH-143" target="UxUqQfO87ql4i69kyXTH-99">
          <mxGeometry relative="1" as="geometry" />
        </mxCell>
        <mxCell id="UxUqQfO87ql4i69kyXTH-92" value="" style="rounded=0;whiteSpace=wrap;html=1;" vertex="1" parent="1">
          <mxGeometry x="-100" y="600" width="40" height="20" as="geometry" />
        </mxCell>
        <mxCell id="UxUqQfO87ql4i69kyXTH-93" style="rounded=0;orthogonalLoop=1;jettySize=auto;html=1;entryX=0;entryY=0.5;entryDx=0;entryDy=0;exitX=1;exitY=0.5;exitDx=0;exitDy=0;fillColor=#fff2cc;strokeColor=#000000;" edge="1" parent="1" source="UxUqQfO87ql4i69kyXTH-144" target="UxUqQfO87ql4i69kyXTH-100">
          <mxGeometry relative="1" as="geometry" />
        </mxCell>
        <mxCell id="UxUqQfO87ql4i69kyXTH-94" value="" style="rounded=0;whiteSpace=wrap;html=1;" vertex="1" parent="1">
          <mxGeometry x="-100" y="620" width="40" height="20" as="geometry" />
        </mxCell>
        <mxCell id="UxUqQfO87ql4i69kyXTH-95" style="rounded=0;orthogonalLoop=1;jettySize=auto;html=1;entryX=0;entryY=0.5;entryDx=0;entryDy=0;exitX=1;exitY=0.5;exitDx=0;exitDy=0;fillColor=#f8cecc;strokeColor=#000000;" edge="1" parent="1" source="UxUqQfO87ql4i69kyXTH-145" target="UxUqQfO87ql4i69kyXTH-101">
          <mxGeometry relative="1" as="geometry" />
        </mxCell>
        <mxCell id="UxUqQfO87ql4i69kyXTH-96" value="10000" style="rounded=0;whiteSpace=wrap;html=1;" vertex="1" parent="1">
          <mxGeometry x="-100" y="640" width="40" height="20" as="geometry" />
        </mxCell>
        <mxCell id="UxUqQfO87ql4i69kyXTH-97" value="" style="rounded=0;whiteSpace=wrap;html=1;" vertex="1" parent="1">
          <mxGeometry x="60" y="560" width="60" height="20" as="geometry" />
        </mxCell>
        <mxCell id="UxUqQfO87ql4i69kyXTH-98" value="..." style="rounded=0;whiteSpace=wrap;html=1;" vertex="1" parent="1">
          <mxGeometry x="60" y="580" width="60" height="20" as="geometry" />
        </mxCell>
        <mxCell id="UxUqQfO87ql4i69kyXTH-99" value="" style="rounded=0;whiteSpace=wrap;html=1;" vertex="1" parent="1">
          <mxGeometry x="60" y="600" width="60" height="20" as="geometry" />
        </mxCell>
        <mxCell id="UxUqQfO87ql4i69kyXTH-100" value="" style="rounded=0;whiteSpace=wrap;html=1;" vertex="1" parent="1">
          <mxGeometry x="60" y="620" width="60" height="20" as="geometry" />
        </mxCell>
        <mxCell id="UxUqQfO87ql4i69kyXTH-101" value="10000" style="rounded=0;whiteSpace=wrap;html=1;" vertex="1" parent="1">
          <mxGeometry x="60" y="640" width="60" height="20" as="geometry" />
        </mxCell>
        <mxCell id="UxUqQfO87ql4i69kyXTH-102" value="5000" style="rounded=0;whiteSpace=wrap;html=1;" vertex="1" parent="1">
          <mxGeometry x="60" y="540" width="60" height="20" as="geometry" />
        </mxCell>
        <mxCell id="UxUqQfO87ql4i69kyXTH-103" value="join buffer" style="text;html=1;strokeColor=none;fillColor=none;align=center;verticalAlign=middle;whiteSpace=wrap;rounded=0;" vertex="1" parent="1">
          <mxGeometry x="-320" y="420" width="80" height="30" as="geometry" />
        </mxCell>
        <mxCell id="UxUqQfO87ql4i69kyXTH-104" value="t4-a索引" style="text;html=1;strokeColor=none;fillColor=none;align=center;verticalAlign=middle;whiteSpace=wrap;rounded=0;" vertex="1" parent="1">
          <mxGeometry x="-120" y="400" width="100" height="30" as="geometry" />
        </mxCell>
        <mxCell id="UxUqQfO87ql4i69kyXTH-105" value="t2-id索引" style="text;html=1;strokeColor=none;fillColor=none;align=center;verticalAlign=middle;whiteSpace=wrap;rounded=0;" vertex="1" parent="1">
          <mxGeometry x="40" y="400" width="100" height="30" as="geometry" />
        </mxCell>
        <mxCell id="UxUqQfO87ql4i69kyXTH-106" value="" style="rounded=0;whiteSpace=wrap;html=1;" vertex="1" parent="1">
          <mxGeometry x="-520" y="440" width="60" height="20" as="geometry" />
        </mxCell>
        <mxCell id="UxUqQfO87ql4i69kyXTH-107" value="" style="rounded=0;whiteSpace=wrap;html=1;" vertex="1" parent="1">
          <mxGeometry x="-520" y="460" width="60" height="20" as="geometry" />
        </mxCell>
        <mxCell id="UxUqQfO87ql4i69kyXTH-108" value="" style="rounded=0;whiteSpace=wrap;html=1;" vertex="1" parent="1">
          <mxGeometry x="-520" y="480" width="60" height="20" as="geometry" />
        </mxCell>
        <mxCell id="UxUqQfO87ql4i69kyXTH-109" value="" style="rounded=0;whiteSpace=wrap;html=1;" vertex="1" parent="1">
          <mxGeometry x="-520" y="500" width="60" height="20" as="geometry" />
        </mxCell>
        <mxCell id="UxUqQfO87ql4i69kyXTH-110" value="" style="rounded=0;whiteSpace=wrap;html=1;" vertex="1" parent="1">
          <mxGeometry x="-520" y="520" width="60" height="20" as="geometry" />
        </mxCell>
        <mxCell id="UxUqQfO87ql4i69kyXTH-111" value="5000" style="rounded=0;whiteSpace=wrap;html=1;" vertex="1" parent="1">
          <mxGeometry x="-520" y="540" width="60" height="20" as="geometry" />
        </mxCell>
        <mxCell id="UxUqQfO87ql4i69kyXTH-112" value="t3-a索引" style="text;html=1;strokeColor=none;fillColor=none;align=center;verticalAlign=middle;whiteSpace=wrap;rounded=0;" vertex="1" parent="1">
          <mxGeometry x="-540" y="400" width="100" height="30" as="geometry" />
        </mxCell>
        <mxCell id="UxUqQfO87ql4i69kyXTH-113" value="" style="rounded=0;whiteSpace=wrap;html=1;" vertex="1" parent="1">
          <mxGeometry x="-520" y="560" width="60" height="20" as="geometry" />
        </mxCell>
        <mxCell id="UxUqQfO87ql4i69kyXTH-114" value="..." style="rounded=0;whiteSpace=wrap;html=1;" vertex="1" parent="1">
          <mxGeometry x="-520" y="580" width="60" height="20" as="geometry" />
        </mxCell>
        <mxCell id="UxUqQfO87ql4i69kyXTH-115" value="" style="rounded=0;whiteSpace=wrap;html=1;" vertex="1" parent="1">
          <mxGeometry x="-520" y="600" width="60" height="20" as="geometry" />
        </mxCell>
        <mxCell id="UxUqQfO87ql4i69kyXTH-116" value="" style="rounded=0;whiteSpace=wrap;html=1;" vertex="1" parent="1">
          <mxGeometry x="-520" y="620" width="60" height="20" as="geometry" />
        </mxCell>
        <mxCell id="UxUqQfO87ql4i69kyXTH-117" value="10000" style="rounded=0;whiteSpace=wrap;html=1;" vertex="1" parent="1">
          <mxGeometry x="-520" y="640" width="60" height="20" as="geometry" />
        </mxCell>
        <mxCell id="UxUqQfO87ql4i69kyXTH-118" value="" style="rounded=0;whiteSpace=wrap;html=1;" vertex="1" parent="1">
          <mxGeometry x="-100" y="440" width="40" height="20" as="geometry" />
        </mxCell>
        <mxCell id="UxUqQfO87ql4i69kyXTH-119" value="" style="rounded=0;whiteSpace=wrap;html=1;" vertex="1" parent="1">
          <mxGeometry x="-100" y="460" width="40" height="20" as="geometry" />
        </mxCell>
        <mxCell id="UxUqQfO87ql4i69kyXTH-120" value="" style="rounded=0;whiteSpace=wrap;html=1;" vertex="1" parent="1">
          <mxGeometry x="-100" y="480" width="40" height="20" as="geometry" />
        </mxCell>
        <mxCell id="UxUqQfO87ql4i69kyXTH-121" value="" style="rounded=0;whiteSpace=wrap;html=1;" vertex="1" parent="1">
          <mxGeometry x="-100" y="500" width="40" height="20" as="geometry" />
        </mxCell>
        <mxCell id="UxUqQfO87ql4i69kyXTH-122" value="" style="rounded=0;whiteSpace=wrap;html=1;" vertex="1" parent="1">
          <mxGeometry x="-100" y="520" width="40" height="20" as="geometry" />
        </mxCell>
        <mxCell id="UxUqQfO87ql4i69kyXTH-123" value="" style="rounded=0;whiteSpace=wrap;html=1;" vertex="1" parent="1">
          <mxGeometry x="60" y="440" width="60" height="20" as="geometry" />
        </mxCell>
        <mxCell id="UxUqQfO87ql4i69kyXTH-124" value="" style="rounded=0;whiteSpace=wrap;html=1;" vertex="1" parent="1">
          <mxGeometry x="60" y="460" width="60" height="20" as="geometry" />
        </mxCell>
        <mxCell id="UxUqQfO87ql4i69kyXTH-125" value="" style="rounded=0;whiteSpace=wrap;html=1;" vertex="1" parent="1">
          <mxGeometry x="60" y="480" width="60" height="20" as="geometry" />
        </mxCell>
        <mxCell id="UxUqQfO87ql4i69kyXTH-126" value="" style="rounded=0;whiteSpace=wrap;html=1;" vertex="1" parent="1">
          <mxGeometry x="60" y="500" width="60" height="20" as="geometry" />
        </mxCell>
        <mxCell id="UxUqQfO87ql4i69kyXTH-127" value="" style="rounded=0;whiteSpace=wrap;html=1;" vertex="1" parent="1">
          <mxGeometry x="60" y="520" width="60" height="20" as="geometry" />
        </mxCell>
        <mxCell id="UxUqQfO87ql4i69kyXTH-128" value="" style="rounded=0;whiteSpace=wrap;html=1;" vertex="1" parent="1">
          <mxGeometry x="-440" y="80" width="40" height="20" as="geometry" />
        </mxCell>
        <mxCell id="UxUqQfO87ql4i69kyXTH-129" value="" style="rounded=0;whiteSpace=wrap;html=1;" vertex="1" parent="1">
          <mxGeometry x="-440" y="100" width="40" height="20" as="geometry" />
        </mxCell>
        <mxCell id="UxUqQfO87ql4i69kyXTH-130" value="" style="rounded=0;whiteSpace=wrap;html=1;" vertex="1" parent="1">
          <mxGeometry x="-440" y="120" width="40" height="20" as="geometry" />
        </mxCell>
        <mxCell id="UxUqQfO87ql4i69kyXTH-131" value="" style="rounded=0;whiteSpace=wrap;html=1;" vertex="1" parent="1">
          <mxGeometry x="-440" y="140" width="40" height="20" as="geometry" />
        </mxCell>
        <mxCell id="UxUqQfO87ql4i69kyXTH-132" value="" style="rounded=0;whiteSpace=wrap;html=1;" vertex="1" parent="1">
          <mxGeometry x="-440" y="160" width="40" height="20" as="geometry" />
        </mxCell>
        <mxCell id="UxUqQfO87ql4i69kyXTH-133" value="5001" style="rounded=0;whiteSpace=wrap;html=1;" vertex="1" parent="1">
          <mxGeometry x="-440" y="180" width="40" height="20" as="geometry" />
        </mxCell>
        <mxCell id="UxUqQfO87ql4i69kyXTH-134" value="" style="rounded=0;whiteSpace=wrap;html=1;" vertex="1" parent="1">
          <mxGeometry x="-440" y="200" width="40" height="20" as="geometry" />
        </mxCell>
        <mxCell id="UxUqQfO87ql4i69kyXTH-135" value="..." style="rounded=0;whiteSpace=wrap;html=1;" vertex="1" parent="1">
          <mxGeometry x="-440" y="220" width="40" height="20" as="geometry" />
        </mxCell>
        <mxCell id="UxUqQfO87ql4i69kyXTH-136" value="" style="rounded=0;whiteSpace=wrap;html=1;" vertex="1" parent="1">
          <mxGeometry x="-440" y="240" width="40" height="20" as="geometry" />
        </mxCell>
        <mxCell id="UxUqQfO87ql4i69kyXTH-137" value="" style="rounded=0;whiteSpace=wrap;html=1;" vertex="1" parent="1">
          <mxGeometry x="-440" y="260" width="40" height="20" as="geometry" />
        </mxCell>
        <mxCell id="UxUqQfO87ql4i69kyXTH-138" value="1" style="rounded=0;whiteSpace=wrap;html=1;" vertex="1" parent="1">
          <mxGeometry x="-440" y="280" width="40" height="20" as="geometry" />
        </mxCell>
        <mxCell id="UxUqQfO87ql4i69kyXTH-140" value="5000" style="rounded=0;whiteSpace=wrap;html=1;" vertex="1" parent="1">
          <mxGeometry x="-60" y="540" width="40" height="20" as="geometry" />
        </mxCell>
        <mxCell id="UxUqQfO87ql4i69kyXTH-141" value="" style="rounded=0;whiteSpace=wrap;html=1;" vertex="1" parent="1">
          <mxGeometry x="-60" y="560" width="40" height="20" as="geometry" />
        </mxCell>
        <mxCell id="UxUqQfO87ql4i69kyXTH-142" value="..." style="rounded=0;whiteSpace=wrap;html=1;" vertex="1" parent="1">
          <mxGeometry x="-60" y="580" width="40" height="20" as="geometry" />
        </mxCell>
        <mxCell id="UxUqQfO87ql4i69kyXTH-143" value="" style="rounded=0;whiteSpace=wrap;html=1;" vertex="1" parent="1">
          <mxGeometry x="-60" y="600" width="40" height="20" as="geometry" />
        </mxCell>
        <mxCell id="UxUqQfO87ql4i69kyXTH-144" value="" style="rounded=0;whiteSpace=wrap;html=1;" vertex="1" parent="1">
          <mxGeometry x="-60" y="620" width="40" height="20" as="geometry" />
        </mxCell>
        <mxCell id="UxUqQfO87ql4i69kyXTH-145" value="10000" style="rounded=0;whiteSpace=wrap;html=1;" vertex="1" parent="1">
          <mxGeometry x="-60" y="640" width="40" height="20" as="geometry" />
        </mxCell>
        <mxCell id="UxUqQfO87ql4i69kyXTH-146" value="" style="rounded=0;whiteSpace=wrap;html=1;" vertex="1" parent="1">
          <mxGeometry x="-60" y="440" width="40" height="20" as="geometry" />
        </mxCell>
        <mxCell id="UxUqQfO87ql4i69kyXTH-147" value="" style="rounded=0;whiteSpace=wrap;html=1;" vertex="1" parent="1">
          <mxGeometry x="-60" y="460" width="40" height="20" as="geometry" />
        </mxCell>
        <mxCell id="UxUqQfO87ql4i69kyXTH-148" value="" style="rounded=0;whiteSpace=wrap;html=1;" vertex="1" parent="1">
          <mxGeometry x="-60" y="480" width="40" height="20" as="geometry" />
        </mxCell>
        <mxCell id="UxUqQfO87ql4i69kyXTH-149" value="" style="rounded=0;whiteSpace=wrap;html=1;" vertex="1" parent="1">
          <mxGeometry x="-60" y="500" width="40" height="20" as="geometry" />
        </mxCell>
        <mxCell id="UxUqQfO87ql4i69kyXTH-150" value="" style="rounded=0;whiteSpace=wrap;html=1;" vertex="1" parent="1">
          <mxGeometry x="-60" y="520" width="40" height="20" as="geometry" />
        </mxCell>
      </root>
    </mxGraphModel>
  </diagram>
</mxfile>
